{
  "source": "C:\\Users\\Peter\\Desktop\\stuff\\MIUN\\quantitative_research\\video_compression\\videos\\BVI-HD\\RockWater_1920x1080_30fps.mp4",
  "output": "C:\\Users\\Peter\\Desktop\\stuff\\MIUN\\quantitative_research\\video_compression\\compressed_videos\\BVI-HD\\h264\\8\\RockWater_1920x1080_30fps_h264.mp4",
  "codec": "h264",
  "ok": "Input #0, mov,mp4,m4a,3gp,3g2,mj2, from 'C:\\Users\\Peter\\Desktop\\stuff\\MIUN\\quantitative_research\\video_compression\\videos\\BVI-HD\\RockWater_1920x1080_30fps.mp4':\n  Metadata:\n    major_brand     : isom\n    minor_version   : 512\n    compatible_brands: isomiso2avc1mp41\n    encoder         : Lavf54.28.101\n  Duration: 00:00:05.00, start: 0.000000, bitrate: 245943 kb/s\n  Stream #0:0[0x1](und): Video: h264 (High 4:4:4 Predictive) (avc1 / 0x31637661), yuv420p(progressive), 1920x1080, 245940 kb/s, 30 fps, 30 tbr, 30 tbn (default)\n    Metadata:\n      handler_name    : VideoHandler\n      vendor_id       : [0][0][0][0]\n[out#0/mp4 @ 0000014decd21440] Codec AVOption b:a (set bitrate (in bits/s)) has not been used for any stream. The most likely reason is either wrong type (e.g. a video option with no video streams) or that it is a private option of some decoder which was not actually used for any stream.\nStream mapping:\n  Stream #0:0 -> #0:0 (h264 (native) -> h264 (libx264))\nPress [q] to stop, [?] for help\n[libx264 @ 0000014ded5d47c0] using cpu capabilities: MMX2 SSE2Fast SSSE3 SSE4.2 AVX FMA3 BMI2 AVX2\n[libx264 @ 0000014ded5d47c0] profile High, level 5.0, 4:2:0, 8-bit\n[libx264 @ 0000014ded5d47c0] 264 - core 165 r3222 b35605a - H.264/MPEG-4 AVC codec - Copyleft 2003-2025 - http://www.videolan.org/x264.html - options: cabac=1 ref=5 deblock=1:0:0 analyse=0x3:0x113 me=hex subme=8 psy=1 psy_rd=1.00:0.00 mixed_ref=1 me_range=16 chroma_me=1 trellis=2 8x8dct=1 cqm=0 deadzone=21,11 fast_pskip=1 chroma_qp_offset=-2 threads=18 lookahead_threads=3 sliced_threads=0 nr=0 decimate=1 interlaced=0 bluray_compat=0 constrained_intra=0 bframes=3 b_pyramid=2 b_adapt=1 b_bias=0 direct=3 weightb=1 open_gop=0 weightp=2 keyint=250 keyint_min=25 scenecut=40 intra_refresh=0 rc_lookahead=50 rc=cbr mbtree=1 bitrate=8000 ratetol=1.0 qcomp=0.60 qpmin=0 qpmax=69 qpstep=4 vbv_maxrate=8000 vbv_bufsize=8000 nal_hrd=none filler=0 ip_ratio=1.40 aq=1:1.00\nOutput #0, mp4, to 'C:\\Users\\Peter\\Desktop\\stuff\\MIUN\\quantitative_research\\video_compression\\compressed_videos\\BVI-HD\\h264\\8\\RockWater_1920x1080_30fps_h264.mp4':\n  Metadata:\n    major_brand     : isom\n    minor_version   : 512\n    compatible_brands: isomiso2avc1mp41\n    encoder         : Lavf62.3.100\n  Stream #0:0(und): Video: h264 (avc1 / 0x31637661), yuv420p(tv, progressive), 1920x1080, q=2-31, 8000 kb/s, 30 fps, 15360 tbn (default)\n    Metadata:\n      encoder         : Lavc62.11.100 libx264\n      handler_name    : VideoHandler\n      vendor_id       : [0][0][0][0]\n    Side data:\n      cpb: bitrate max/min/avg: 8000000/0/8000000 buffer size: 8000000 vbv_delay: N/A\nframe=    0 fps=0.0 q=0.0 size=       0KiB time=N/A bitrate=N/A speed=N/A elapsed=0:00:00.50    \nframe=    0 fps=0.0 q=0.0 size=       0KiB time=N/A bitrate=N/A speed=N/A elapsed=0:00:01.03    \nframe=   11 fps=6.9 q=33.0 size=     256KiB time=00:00:00.23 bitrate=8989.5kbits/s speed=0.145x elapsed=0:00:01.60    \nframe=   23 fps= 11 q=33.0 size=     768KiB time=00:00:00.70 bitrate=8988.3kbits/s speed=0.326x elapsed=0:00:02.14    \nframe=   41 fps= 15 q=33.0 size=    1280KiB time=00:00:01.30 bitrate=8066.3kbits/s speed=0.489x elapsed=0:00:02.66    \nframe=   59 fps= 19 q=33.0 size=    1792KiB time=00:00:01.90 bitrate=7726.6kbits/s speed=0.596x elapsed=0:00:03.18    \nframe=   81 fps= 22 q=33.0 size=    2304KiB time=00:00:02.63 bitrate=7167.6kbits/s speed=0.71x elapsed=0:00:03.70    \nframe=  101 fps= 24 q=33.0 size=    2816KiB time=00:00:03.30 bitrate=6990.6kbits/s speed=0.782x elapsed=0:00:04.22    \nframe=  121 fps= 26 q=31.0 size=    3584KiB time=00:00:03.96 bitrate=7401.8kbits/s speed=0.837x elapsed=0:00:04.74    \n[mp4 @ 0000014decd21540] Starting second pass: moving the moov atom to the beginning of the file\n[out#0/mp4 @ 0000014decd21440] video:4691KiB audio:0KiB subtitle:0KiB other streams:0KiB global headers:0KiB muxing overhead: 0.056351%\nframe=  150 fps= 29 q=-1.0 Lsize=    4694KiB time=00:00:04.93 bitrate=7794.4kbits/s speed=0.942x elapsed=0:00:05.23    \n[libx264 @ 0000014ded5d47c0] frame I:1     Avg QP:29.13  size: 86506\n[libx264 @ 0000014ded5d47c0] frame P:40    Avg QP:30.99  size: 49835\n[libx264 @ 0000014ded5d47c0] frame B:109   Avg QP:33.29  size: 24983\n[libx264 @ 0000014ded5d47c0] consecutive B-frames:  1.3%  4.0%  4.0% 90.7%\n[libx264 @ 0000014ded5d47c0] mb I  I16..4: 16.5% 75.8%  7.7%\n[libx264 @ 0000014ded5d47c0] mb P  I16..4: 14.0% 21.4%  1.1%  P16..4: 43.7%  9.4%  4.6%  0.0%  0.0%    skip: 5.7%\n[libx264 @ 0000014ded5d47c0] mb B  I16..4:  3.1%  6.5%  0.5%  B16..8: 46.4% 10.9%  1.2%  direct: 3.3%  skip:28.2%  L0:50.3% L1:47.0% BI: 2.7%\n[libx264 @ 0000014ded5d47c0] 8x8 transform intra:61.6% inter:78.7%\n[libx264 @ 0000014ded5d47c0] direct mvs  spatial:91.7% temporal:8.3%\n[libx264 @ 0000014ded5d47c0] coded y,uvDC,uvAC intra: 40.2% 13.8% 0.0% inter: 20.8% 5.5% 0.0%\n[libx264 @ 0000014ded5d47c0] i16 v,h,dc,p:  4% 44%  6% 46%\n[libx264 @ 0000014ded5d47c0] i8 v,h,dc,ddl,ddr,vr,hd,vl,hu:  5% 21% 10%  6%  9%  5% 21%  6% 17%\n[libx264 @ 0000014ded5d47c0] i4 v,h,dc,ddl,ddr,vr,hd,vl,hu:  7% 17% 19%  6%  9%  6% 14%  7% 16%\n[libx264 @ 0000014ded5d47c0] i8c dc,h,v,p: 81% 17%  2%  0%\n[libx264 @ 0000014ded5d47c0] Weighted P-Frames: Y:10.0% UV:0.0%\n[libx264 @ 0000014ded5d47c0] ref P L0: 47.6% 10.6% 19.2% 12.2%  9.9%  0.6%\n[libx264 @ 0000014ded5d47c0] ref B L0: 66.8% 18.8% 10.5%  3.9%\n[libx264 @ 0000014ded5d47c0] ref B L1: 92.6%  7.4%\n[libx264 @ 0000014ded5d47c0] kb/s:7684.91\n",
  "seconds": 5.401118516921997,
  "probe_out": {}
}